<?xml version="1.0" standalone="no"?>
<!DOCTYPE svg PUBLIC "-//W3C//DTD SVG 20010904//EN"
 "http://www.w3.org/TR/2001/REC-SVG-20010904/DTD/svg10.dtd">
<svg version="1.0" xmlns="http://www.w3.org/2000/svg"
 width="200.000000pt" height="200.000000pt" viewBox="0 0 200.000000 200.000000"
 preserveAspectRatio="xMidYMid meet">
<metadata>
Created by potrace 1.11, written by Peter Selinger 2001-2013
</metadata>
<g transform="translate(0.000000,200.000000) scale(0.100000,-0.100000)"
fill="#000000" stroke="none">
<path d="M715 1675 c-49 -25 -65 -52 -65 -107 0 -48 -14 -188 -45 -453 -28
-230 -75 -501 -120 -688 -14 -57 -25 -110 -25 -116 0 -8 72 -11 243 -11 l242
0 38 25 c20 14 37 33 37 41 0 16 23 229 40 379 29 243 78 542 129 785 17 80
31 148 31 152 0 5 -107 8 -237 8 -193 0 -244 -3 -268 -15z"/>
<path d="M1484 871 c-43 -20 -61 -41 -112 -134 -62 -110 -156 -233 -259 -334
l-103 -103 202 0 c279 1 268 -11 312 325 8 61 18 137 21 170 3 33 8 68 11 78
7 23 -19 22 -72 -2z"/>
</g>
</svg>
